<?xml version="1.0" encoding="UTF-8" standalone="no"?>
<svg
   xmlns:dc="http://purl.org/dc/elements/1.1/"
   xmlns:cc="http://creativecommons.org/ns#"
   xmlns:rdf="http://www.w3.org/1999/02/22-rdf-syntax-ns#"
   xmlns:svg="http://www.w3.org/2000/svg"
   xmlns="http://www.w3.org/2000/svg"
   xmlns:xlink="http://www.w3.org/1999/xlink"
   xmlns:sodipodi="http://sodipodi.sourceforge.net/DTD/sodipodi-0.dtd"
   xmlns:inkscape="http://www.inkscape.org/namespaces/inkscape"
   width="33.600647mm"
   height="17.328707mm"
   viewBox="0 0 33.600647 17.328707"
   version="1.1"
   id="svg169"
   inkscape:version="1.0.2 (e86c870879, 2021-01-15)"
   sodipodi:docname="battery.svg"
   inkscape:export-filename="/home/bjartskular/projects/uni/m7011e/M7011E/web/public/battery.png"
   inkscape:export-xdpi="96.760048"
   inkscape:export-ydpi="96.760048">
  <defs
     id="defs163">
    <linearGradient
       inkscape:collect="always"
       id="linearGradient2500">
      <stop
         style="stop-color:#6552f5;stop-opacity:1"
         offset="0"
         id="stop2496" />
      <stop
         style="stop-color:#d55eff;stop-opacity:1"
         offset="1"
         id="stop2498" />
    </linearGradient>
    <linearGradient
       inkscape:collect="always"
       xlink:href="#linearGradient2500"
       id="linearGradient2502"
       x1="6.4227171"
       y1="109.58873"
       x2="141.72107"
       y2="41.35437"
       gradientUnits="userSpaceOnUse" />
  </defs>
  <sodipodi:namedview
     id="base"
     pagecolor="#ffffff"
     bordercolor="#666666"
     borderopacity="1.0"
     inkscape:pageopacity="0.0"
     inkscape:pageshadow="2"
     inkscape:zoom="4"
     inkscape:cx="4.519331"
     inkscape:cy="24.792761"
     inkscape:document-units="mm"
     inkscape:current-layer="layer1"
     inkscape:document-rotation="0"
     showgrid="false"
     fit-margin-top="0"
     fit-margin-left="0"
     fit-margin-right="0"
     fit-margin-bottom="0"
     lock-margins="false"
     inkscape:snap-global="false"
     inkscape:window-width="1920"
     inkscape:window-height="1030"
     inkscape:window-x="1920"
     inkscape:window-y="26"
     inkscape:window-maximized="1" />
  <metadata
     id="metadata166">
    <rdf:RDF>
      <cc:Work
         rdf:about="">
        <dc:format>image/svg+xml</dc:format>
        <dc:type
           rdf:resource="http://purl.org/dc/dcmitype/StillImage" />
        <dc:title></dc:title>
      </cc:Work>
    </rdf:RDF>
  </metadata>
  <g
     inkscape:label="Layer 1"
     inkscape:groupmode="layer"
     id="layer1"
     transform="translate(-60.708469,-69.154065)">
    <path
       id="path1080"
       style="fill:url(#linearGradient2502);fill-opacity:1;stroke-width:0.0935433;stroke-miterlimit:4;stroke-dasharray:none"
       d="m 10.408203,42.083984 -0.195312,31.875 c -0.107679,17.531252 -0.03286,32.298116 0.166015,32.816406 0.286685,0.74702 11.826253,0.90246 55.695313,0.75 l 55.333981,-0.19141 0.21289,-8.037105 0.21289,-8.035156 7.66211,-0.214844 7.66211,-0.212891 v -16.125 -16.125 l -7.66211,-0.21289 -7.66211,-0.214844 -0.21289,-8.035156 -0.21289,-8.03711 H 65.908203 Z m 9.578125,4.13086 13.066406,0.03711 14.855469,0.04297 28.875,25.90039 c 15.88125,14.246041 30.201147,27.053537 31.822267,28.458986 l 2.94922,2.55468 -14.949221,-0.0527 -14.947266,-0.0508 -21.75,-19.533202 C 47.9457,72.828754 33.667264,60.026107 28.177734,55.123047 l -9.894531,-8.837891 c 0.01957,-0.02728 0.699088,-0.04935 1.703125,-0.07031 z m -4.730469,4.279297 c 0.154066,0.0066 0.340071,0.129736 0.566407,0.310547 1.000864,0.79954 55.204185,48.915965 58.298828,51.751952 0.406794,0.3728 -5.063779,0.65019 -12.75,0.64648 l -13.462891,-0.006 -16.6875,-14.806645 -16.6875,-14.806641 V 61.679688 c -7.1e-5,-9.061368 0.05504,-11.214184 0.722656,-11.185547 z m -0.722656,29.390625 12.75,11.412109 c 7.012505,6.276518 12.75,11.524425 12.75,11.662105 0,0.13769 -5.737495,0.25 -12.75,0.25 h -12.75 V 91.546875 Z"
       transform="matrix(0.26458333,0,0,0.26458333,58.019344,58.019344)" />
  </g>
</svg>
