<?xml version="1.0" encoding="UTF-8" standalone="no"?>
<svg
   xmlns:osb="http://www.openswatchbook.org/uri/2009/osb"
   xmlns:dc="http://purl.org/dc/elements/1.1/"
   xmlns:cc="http://creativecommons.org/ns#"
   xmlns:rdf="http://www.w3.org/1999/02/22-rdf-syntax-ns#"
   xmlns:svg="http://www.w3.org/2000/svg"
   xmlns="http://www.w3.org/2000/svg"
   xmlns:xlink="http://www.w3.org/1999/xlink"
   xmlns:sodipodi="http://sodipodi.sourceforge.net/DTD/sodipodi-0.dtd"
   xmlns:inkscape="http://www.inkscape.org/namespaces/inkscape"
   height="99.328697"
   width="483.51645"
   version="1.1"
   id="svg12"
   sodipodi:docname="exerge_logo.svg"
   inkscape:version="1.0.2 (e86c870879, 2021-01-15)">
  <metadata
     id="metadata18">
    <rdf:RDF>
      <cc:Work
         rdf:about="">
        <dc:format>image/svg+xml</dc:format>
        <dc:type
           rdf:resource="http://purl.org/dc/dcmitype/StillImage" />
        <dc:title></dc:title>
      </cc:Work>
    </rdf:RDF>
  </metadata>
  <defs
     id="defs16">
    <linearGradient
       id="linearGradient1932"
       osb:paint="gradient">
      <stop
         style="stop-color:#6552f5;stop-opacity:1;"
         offset="0"
         id="stop1928" />
      <stop
         style="stop-color:#d55eff;stop-opacity:1"
         offset="1"
         id="stop1930" />
    </linearGradient>
    <linearGradient
       inkscape:collect="always"
       id="linearGradient1802"
       osb:paint="gradient">
      <stop
         style="stop-color:#6552f5;stop-opacity:1;"
         offset="0"
         id="stop1806" />
      <stop
         style="stop-color:#da1d24;stop-opacity:1"
         offset="1"
         id="stop1808" />
    </linearGradient>
    <linearGradient
       inkscape:collect="always"
       xlink:href="#linearGradient1802"
       id="linearGradient1818"
       gradientUnits="userSpaceOnUse"
       x1="8.5202312"
       y1="101.47692"
       x2="142.89664"
       y2="32.689068" />
    <linearGradient
       inkscape:collect="always"
       xlink:href="#linearGradient1932"
       id="linearGradient1863"
       gradientUnits="userSpaceOnUse"
       x1="8.5202312"
       y1="101.47692"
       x2="142.89664"
       y2="32.689068" />
  </defs>
  <sodipodi:namedview
     pagecolor="#ffffff"
     bordercolor="#666666"
     borderopacity="1"
     objecttolerance="10"
     gridtolerance="10"
     guidetolerance="10"
     inkscape:pageopacity="0"
     inkscape:pageshadow="2"
     inkscape:window-width="1920"
     inkscape:window-height="1030"
     id="namedview14"
     showgrid="false"
     fit-margin-top="0"
     fit-margin-left="0"
     fit-margin-right="0"
     fit-margin-bottom="0"
     inkscape:zoom="2"
     inkscape:cx="286.44334"
     inkscape:cy="24.111332"
     inkscape:window-x="1920"
     inkscape:window-y="26"
     inkscape:window-maximized="1"
     inkscape:current-layer="svg12"
     inkscape:document-rotation="0" />
  <g
     id="g1861"
     transform="translate(-12.114165,-25.335653)">
    <path
       id="path1080"
       style="mix-blend-mode:normal;fill:url(#linearGradient1863);fill-opacity:1;stroke-width:0.0935433;stroke-miterlimit:4;stroke-dasharray:none"
       d="m 12.358745,34.201886 -0.195312,31.875 c -0.107679,17.531252 -0.03286,32.298119 0.166015,32.816409 0.286685,0.747022 11.826253,0.902462 55.695313,0.750002 l 55.333979,-0.19141 0.21289,-8.037102 0.21289,-8.035164 7.66211,-0.214844 7.66211,-0.212891 v -16.125 -16.125 l -7.66211,-0.21289 -7.66211,-0.214844 -0.21289,-8.035156 -0.21289,-8.03711 H 67.858745 Z m 9.578125,4.13086 13.066406,0.03711 14.855469,0.04297 28.875,25.90039 C 94.615,78.559257 108.93489,91.366755 110.55601,92.772205 l 2.94922,2.55468 -14.949221,-0.0527 -14.947264,-0.0508 -21.75,-19.533205 C 49.896242,64.946656 35.617806,52.144009 30.128276,47.240949 l -9.894531,-8.837891 c 0.01957,-0.02728 0.699088,-0.04935 1.703125,-0.07031 z m -4.730469,4.279297 c 0.154066,0.0066 0.340071,0.129736 0.566407,0.310547 1.000864,0.79954 55.204185,48.915975 58.298828,51.751955 0.406794,0.3728 -5.063779,0.65019 -12.75,0.64648 l -13.462891,-0.006 -16.6875,-14.806648 -16.6875,-14.806641 V 53.79759 c -7.1e-5,-9.061368 0.05504,-11.214184 0.722656,-11.185547 z m -0.722656,29.390625 12.75,11.412109 c 7.012505,6.276518 12.75,11.524428 12.75,11.662108 0,0.13769 -5.737495,0.25 -12.75,0.25 h -12.75 V 83.664777 Z"
       inkscape:export-xdpi="96.76004"
       inkscape:export-ydpi="96.76004" />
    <g
       id="logo-center"
       transform="translate(12,-309)">
      <g
         id="title"
         style="font-style:normal;font-size:72px;line-height:1;font-family:SommetSlabRndW01-RegularIt;font-variant-ligatures:none;text-align:center;text-anchor:middle">
        <path
           id="path68923"
           style="font-style:normal;font-size:72px;line-height:1;font-family:SommetSlabRndW01-RegularIt;font-variant-ligatures:none;text-align:center;text-anchor:middle"
           d="m 427.50577,-3.8817391 7.8887,-37.3147829 h -3.69391 q -1.00174,0 -1.00174,-0.813913 0,-0.313043 0.12522,-0.813913 0.18782,-0.500869 0.37565,-1.001739 0.25043,-0.50087 0.50087,-0.876522 0.31304,-0.375652 0.50087,-0.375652 h 27.73565 q 0.93913,0 0.93913,0.876522 v 0.313043 l -1.69044,7.763479 q -0.12521,0.563478 -0.56347,1.001739 -0.43826,0.375652 -0.93913,0.375652 -0.93913,0 -2.00348,-0.187826 -1.00174,-0.250435 -1.00174,-0.688696 l 1.18956,-5.572174 h -15.40174 l -3.44347,16.34087 h 12.77217 q 0.93913,0 0.93913,0.876522 0,0.313043 -0.12522,0.813913 -0.12521,0.500869 -0.37565,1.001739 -0.18783,0.438261 -0.43826,0.813913 -0.25043,0.375652 -0.50087,0.375652 h -13.08522 l -3.6313,17.0921739 h 15.58956 l 1.25218,-5.8852174 q 0.12522,-0.4382605 1.31478,-0.6260865 1.18957,-0.250435 2.06609,-0.250435 1.00174,0 1.00174,1.0017389 0,0.1252174 -0.0626,0.1878261 0,0.062609 0,0.187826 l -1.37739,6.5739131 q -0.0626,0.3756522 -0.25044,0.813913 -0.12522,0.4382609 -0.31304,0.8765218 -0.18783,0.43826084 -0.43826,0.75130432 Q 451.17186,0 450.98404,0 h -27.98609 q -1.00174,0 -1.00174,-0.81391304 0,-0.25043476 0.12522,-0.75130436 0.12521,-0.5008696 0.31304,-1.0017391 0.25043,-0.5634783 0.50087,-0.9391305 0.25043,-0.3756521 0.50087,-0.3756521 z"
           stroke-width="0"
           stroke-linejoin="miter"
           stroke-miterlimit="2"
           fill="#262223"
           stroke="#262223"
           transform="matrix(1.67,0,0,1.67,-528.73367,409.61635)" />
        <path
           id="path68925"
           style="font-style:normal;font-size:72px;line-height:1;font-family:SommetSlabRndW01-RegularIt;font-variant-ligatures:none;text-align:center;text-anchor:middle"
           d="m 467.46651,-33.182609 q 1.12695,0 2.1913,0.125218 1.12696,0.06261 1.31479,0.688695 l 3.56869,12.834783 8.70261,-12.772174 q 0.37565,-0.563478 1.37739,-0.688696 1.06435,-0.187826 2.37913,-0.187826 h 3.19304 q 1.06435,0 1.06435,0.813913 0,0.313044 -0.12521,0.813913 -0.12522,0.50087 -0.37566,1.00174 -0.18782,0.500869 -0.50087,0.876521 -0.25043,0.375652 -0.50087,0.375652 h -3.56869 l -9.26609,12.709566 3.94435,12.7095649 h 3.38087 q 1.00174,0 1.00174,0.8765217 0,0.3130435 -0.18783,0.8139131 -0.12522,0.5008695 -0.37565,1.0017391 -0.18783,0.50086955 -0.43826,0.87652172 Q 483.9952,0 483.80738,0 h -3.69392 q -1.69043,0 -2.56695,-0.12521739 -0.81391,-0.12521739 -0.93913,-0.75130435 l -3.38087,-12.83478226 -9.14087,12.83478226 q -0.50087,0.62608696 -1.31478,0.75130435 Q 461.95694,0 460.26651,0 h -3.19305 q -1.06434,0 -1.06434,-0.81391304 0,-0.25043476 0.12521,-0.75130436 0.18783,-0.5634783 0.37566,-1.0643478 0.25043,-0.5008696 0.50087,-0.8765218 0.25043,-0.3756521 0.50087,-0.3756521 h 3.6313 l 9.64174,-12.7095649 -4.13217,-12.709566 h -3.19305 q -1.00174,0 -1.00174,-0.813913 0,-0.250434 0.12522,-0.751304 0.12522,-0.50087 0.31304,-1.001739 0.25044,-0.563478 0.50087,-0.939131 0.25044,-0.375652 0.50087,-0.375652 z"
           stroke-width="0"
           stroke-linejoin="miter"
           stroke-miterlimit="2"
           fill="#4a2123"
           stroke="#4a2123"
           transform="matrix(1.67,0,0,1.67,-528.73367,409.61635)" />
        <path
           id="path68927"
           style="font-style:normal;font-size:72px;line-height:1;font-family:SommetSlabRndW01-RegularIt;font-variant-ligatures:none;text-align:center;text-anchor:middle"
           d="m 512.02482,-1.2521739 q -2.31652,0.81391303 -5.19652,1.3147826 -2.81739,0.56347826 -6.07304,0.56347826 -5.76,0 -8.20174,-1.94086956 -2.37913,-2.0034783 -2.37913,-6.0730435 0,-1.1269565 0.12522,-2.4417391 0.18782,-1.3147828 0.50087,-2.7547828 l 2.06608,-9.57913 q 0.75131,-3.631305 2.1287,-5.885218 1.37739,-2.316521 3.25565,-3.568695 1.94087,-1.314783 4.32,-1.753044 2.44174,-0.438261 5.32174,-0.438261 2.06609,0 3.81913,0.250435 1.81565,0.250435 3.06783,0.939131 1.25217,0.626087 1.94087,1.815652 0.7513,1.189565 0.7513,3.130435 0,1.377391 -0.37565,2.942608 -0.62609,2.942609 -2.1287,5.008696 -1.44,2.066087 -3.38087,3.443478 -1.94087,1.314783 -4.19478,2.066087 -2.1913,0.751304 -4.38261,1.126957 -2.12869,0.313043 -4.06956,0.375652 -1.94087,0.06261 -3.31826,0.06261 l -0.18783,1.00174 q -0.18783,0.876521 -0.37565,1.6904344 -0.12522,0.7513043 -0.0626,1.5026087 0,1.0643478 0.31304,2.0034782 0.31305,0.9391305 1.12696,1.6278261 0.87652,0.626087 2.25391,1.0017392 1.37739,0.3756521 3.5687,0.3756521 3.44348,0 5.76,-0.5008695 2.37913,-0.5634783 4.00695,-1.0643479 0.18783,-0.062609 0.50087,-0.062609 0.43826,0 0.43826,1.1895652 0,0.6260869 -0.25043,1.5652174 -0.18783,0.9391304 -0.6887,1.0643478 z m 0.43826,-23.3530431 q 0.18783,-1.00174 0.18783,-1.815653 0,-2.191304 -1.44,-2.817391 -1.44,-0.626087 -3.94435,-0.626087 -1.69043,0 -3.19304,0.250435 -1.50261,0.250435 -2.75478,1.064348 -1.25218,0.813913 -2.19131,2.37913 -0.87652,1.502609 -1.44,4.006957 l -1.25217,5.76 q 1.62782,0 4.06956,-0.125218 2.50435,-0.187826 4.94609,-1.001739 2.44174,-0.813913 4.38261,-2.441739 2.00348,-1.690435 2.62956,-4.633043 z"
           stroke-width="0"
           stroke-linejoin="miter"
           stroke-miterlimit="2"
           fill="#6e2023"
           stroke="#6e2023"
           transform="matrix(1.67,0,0,1.67,-528.73367,409.61635)" />
        <path
           id="path68929"
           style="font-style:normal;font-size:72px;line-height:1;font-family:SommetSlabRndW01-RegularIt;font-variant-ligatures:none;text-align:center;text-anchor:middle"
           d="m 524.47637,0 q -0.43826,0 -1.00174,-0.0626087 -0.56348,-0.06260869 -1.12695,-0.12521739 -0.50087,-0.12521739 -0.87653,-0.25043478 -0.31304,-0.18782609 -0.31304,-0.43826087 v -0.0626087 l 5.88522,-27.67304356 q 0,-0.125217 0,-0.187826 0.0626,-0.06261 0.0626,-0.187826 0,-0.313044 -0.62609,-0.313044 h -2.25391 q -1.06435,0 -1.06435,-0.688695 0,-0.06261 0,-0.06261 0.0626,-0.06261 0.0626,-0.187826 0.0626,-0.187826 0.12522,-0.626087 0.12521,-0.50087 0.31304,-1.001739 0.18783,-0.50087 0.43826,-0.876522 0.31304,-0.438261 0.62609,-0.438261 h 6.5113 q 0.75131,0 1.00174,0.313044 0.31304,0.313043 0.31304,0.813913 0,0.125217 -0.0626,0.250435 0,0.125217 0,0.250434 l -0.56348,2.504348 q 1.06434,-0.626087 2.37913,-1.44 1.37739,-0.876522 2.75478,-1.565217 1.37739,-0.751305 2.69217,-1.252174 1.31479,-0.50087 2.37913,-0.50087 2.19131,0 3.00522,0.876522 0.87652,0.813913 0.87652,2.441739 0,0.813913 -0.18782,1.753044 -0.12522,0.876521 -0.37565,2.003478 l -0.25044,1.189565 q -0.31304,1.565218 -2.1287,1.565218 -0.62608,0 -1.62782,-0.187827 -0.93913,-0.250434 -0.93913,-0.751304 v -0.125217 l 0.31304,-1.690435 q 0.18783,-0.751304 0.18783,-1.44 0,-0.688696 -0.31305,-1.064348 -0.31304,-0.375652 -1.18956,-0.375652 -0.81391,0 -1.94087,0.50087 -1.06435,0.43826 -2.25391,1.126956 -1.12696,0.626087 -2.25392,1.377391 -1.12695,0.751305 -1.94087,1.314783 l -5.13391,24.2295652 Q 525.79115,0 524.47637,0 Z"
           stroke-width="0"
           stroke-linejoin="miter"
           stroke-miterlimit="2"
           fill="#921f24"
           stroke="#921f24"
           transform="matrix(1.67,0,0,1.67,-528.73367,409.61635)" />
        <path
           id="path68931"
           style="font-style:normal;font-size:72px;line-height:1;font-family:SommetSlabRndW01-RegularIt;font-variant-ligatures:none;text-align:center;text-anchor:middle"
           d="m 564.65795,-2.88 q -1.37739,0.5634783 -3.00522,1.1895652 -1.56522,0.626087 -3.19304,1.18956523 Q 556.83186,0 555.26664,0.31304348 q -1.56521,0.31304348 -2.9426,0.31304348 -1.62783,0 -2.75479,-0.37565218 -1.06435,-0.37565217 -1.75304,-1.06434782 -0.62609,-0.75130436 -0.87652,-1.69043476 -0.25044,-1.0017392 -0.25044,-2.1286957 0,-1.2521739 0.25044,-2.6921739 0.25043,-1.44 0.56348,-2.8799996 l 2.69217,-12.584348 q 0.43826,-2.128696 1.00174,-4.069565 0.62609,-2.003479 1.69043,-3.506087 1.12696,-1.565218 2.81739,-2.504348 1.69044,-0.939131 4.38261,-0.939131 2.50435,0 5.57218,0.250435 3.13043,0.187826 7.76348,0.688696 2.06608,0.250435 2.06608,1.627826 0,0.125217 -0.0626,0.250435 0,0.125217 0,0.250434 l -7.9513,37.2521743 q -0.50087,2.4417392 -1.69044,3.9443477 -1.12695,1.565218 -2.81739,2.441739 -1.62782,0.876522 -3.81913,1.189566 Q 557.01969,14.4 554.51534,14.4 q -0.87652,0 -2.06609,-0.06261 -1.18956,0 -2.50435,-0.06261 -1.25217,0 -2.62956,-0.125218 -1.31478,-0.06261 -2.44174,-0.250435 -0.87652,-0.06261 -0.87652,-0.751304 0,-0.313043 0.0626,-0.500869 0.31304,-1.690435 0.68869,-2.191305 0.37566,-0.438261 0.75131,-0.438261 h 0.25043 q 1.18957,0.125218 2.44174,0.187826 1.31478,0.06261 2.50435,0.125218 1.18956,0.06261 2.1913,0.06261 1.00174,0.06261 1.62783,0.06261 2.25391,0 3.75652,-0.375652 1.50261,-0.3130435 2.44174,-1.0017391 0.93913,-0.626087 1.44,-1.5652174 0.50087,-0.8765218 0.7513,-2.066087 z m 5.50956,-25.794783 q -1.81565,-0.313043 -4.38261,-0.500869 -2.50434,-0.187826 -4.57043,-0.187826 -1.62783,0 -2.75478,0.563478 -1.06435,0.563478 -1.81565,1.627826 -0.6887,1.001739 -1.12696,2.441739 -0.43826,1.377392 -0.81391,3.067826 l -2.1287,10.08 q -0.25043,1.189566 -0.43826,2.2539133 -0.12522,1.0643479 -0.12522,1.9408696 0,1.6278261 0.6887,2.6295652 0.7513,0.9391305 2.69217,0.9391305 0.93913,0 2.25391,-0.3130435 1.31479,-0.3130435 2.69218,-0.7513044 1.37739,-0.4382608 2.69217,-0.9391304 1.37739,-0.5008696 2.44174,-0.9391304 z"
           stroke-width="0"
           stroke-linejoin="miter"
           stroke-miterlimit="2"
           fill="#b61e24"
           stroke="#b61e24"
           transform="matrix(1.67,0,0,1.67,-528.73367,409.61635)" />
        <path
           id="path68933"
           style="font-style:normal;font-size:72px;line-height:1;font-family:SommetSlabRndW01-RegularIt;font-variant-ligatures:none;text-align:center;text-anchor:middle"
           d="m 600.7592,-1.2521739 q -2.31652,0.81391303 -5.19652,1.3147826 -2.81739,0.56347826 -6.07305,0.56347826 -5.76,0 -8.20174,-1.94086956 -2.37913,-2.0034783 -2.37913,-6.0730435 0,-1.1269565 0.12522,-2.4417391 0.18783,-1.3147828 0.50087,-2.7547828 l 2.06609,-9.57913 q 0.7513,-3.631305 2.12869,-5.885218 1.37739,-2.316521 3.25566,-3.568695 1.94086,-1.314783 4.32,-1.753044 2.44173,-0.438261 5.32173,-0.438261 2.06609,0 3.81913,0.250435 1.81566,0.250435 3.06783,0.939131 1.25217,0.626087 1.94087,1.815652 0.7513,1.189565 0.7513,3.130435 0,1.377391 -0.37565,2.942608 -0.62608,2.942609 -2.12869,5.008696 -1.44,2.066087 -3.38087,3.443478 -1.94087,1.314783 -4.19479,2.066087 -2.1913,0.751304 -4.3826,1.126957 -2.1287,0.313043 -4.06957,0.375652 -1.94087,0.06261 -3.31826,0.06261 l -0.18783,1.00174 q -0.18782,0.876521 -0.37565,1.6904344 -0.12522,0.7513043 -0.0626,1.5026087 0,1.0643478 0.31305,2.0034782 0.31304,0.9391305 1.12695,1.6278261 0.87652,0.626087 2.25392,1.0017392 1.37739,0.3756521 3.56869,0.3756521 3.44348,0 5.76,-0.5008695 2.37913,-0.5634783 4.00696,-1.0643479 0.18782,-0.062609 0.50087,-0.062609 0.43826,0 0.43826,1.1895652 0,0.6260869 -0.25044,1.5652174 -0.18782,0.9391304 -0.68869,1.0643478 z m 0.43826,-23.3530431 q 0.18783,-1.00174 0.18783,-1.815653 0,-2.191304 -1.44,-2.817391 -1.44,-0.626087 -3.94435,-0.626087 -1.69044,0 -3.19305,0.250435 -1.5026,0.250435 -2.75478,1.064348 -1.25217,0.813913 -2.1913,2.37913 -0.87652,1.502609 -1.44,4.006957 l -1.25218,5.76 q 1.62783,0 4.06957,-0.125218 2.50435,-0.187826 4.94609,-1.001739 2.44173,-0.813913 4.3826,-2.441739 2.00348,-1.690435 2.62957,-4.633043 z"
           stroke-width="0"
           stroke-linejoin="miter"
           stroke-miterlimit="2"
           fill="#da1d24"
           stroke="#da1d24"
           transform="matrix(1.67,0,0,1.67,-528.73367,409.61635)" />
      </g>
    </g>
  </g>
</svg>
